<?xml version="1.0" standalone="no"?>
<!DOCTYPE svg PUBLIC "-//W3C//DTD SVG 20010904//EN"
 "http://www.w3.org/TR/2001/REC-SVG-20010904/DTD/svg10.dtd">
<svg version="1.0" xmlns="http://www.w3.org/2000/svg"
 width="500.000000pt" height="500.000000pt" viewBox="0 0 500.000000 500.000000"
 preserveAspectRatio="xMidYMid meet">
<metadata>
Created by potrace 1.14, written by Peter Selinger 2001-2017
</metadata>
<g transform="translate(0.000000,500.000000) scale(0.100000,-0.100000)"
fill="#000000" stroke="none">
<path d="M2138 4795 c-2 -2 -25 -6 -53 -9 -151 -16 -443 -92 -590 -153 -204
-84 -467 -244 -594 -360 -27 -24 -147 -55 -266 -69 -58 -7 -74 -10 -79 -15 -3
-3 -8 -70 -11 -149 l-6 -145 -71 -110 c-39 -60 -79 -122 -89 -137 -11 -15 -19
-34 -19 -43 0 -8 -4 -15 -8 -15 -22 0 -180 -366 -226 -525 -15 -49 -31 -103
-36 -120 -14 -46 -48 -204 -56 -260 -3 -27 -8 -59 -10 -70 -23 -120 -22 -427
2 -605 72 -544 359 -1085 739 -1396 33 -27 62 -51 65 -54 15 -17 157 -104 230
-142 162 -84 392 -156 590 -184 19 -2 44 -6 55 -9 65 -13 163 -19 345 -19 241
-1 293 5 535 54 77 16 156 34 175 40 21 6 65 8 110 4 134 -12 393 -10 485 3
50 8 130 23 178 34 86 20 113 21 232 4 17 -3 93 -13 170 -23 l140 -18 90 75
c50 41 97 82 106 90 9 9 62 54 118 101 l101 84 1 81 c0 44 0 119 1 168 l1 88
61 82 c192 255 310 538 376 897 6 30 12 64 14 75 2 12 7 48 11 80 4 33 9 68
11 77 1 10 6 59 10 110 3 51 9 97 11 101 9 16 10 469 2 572 -14 170 -41 271
-122 455 -39 90 -54 121 -111 224 -22 39 -130 192 -145 206 -3 3 -25 30 -48
60 -40 53 -160 173 -254 255 -150 131 -322 242 -569 367 -259 131 -409 179
-675 217 -82 11 -206 5 -330 -16 -16 -3 -37 -6 -45 -7 -8 -2 -33 1 -55 6 -105
25 -238 40 -372 43 -67 2 -123 2 -125 0z m952 -129 c14 -2 41 -7 60 -10 19 -3
46 -8 60 -10 100 -17 190 -41 245 -65 11 -5 45 -19 75 -31 73 -29 341 -168
416 -216 270 -171 456 -339 626 -568 148 -198 273 -467 313 -676 24 -125 24
-579 -1 -765 -2 -16 -6 -57 -9 -90 -3 -33 -8 -73 -11 -90 -4 -16 -8 -43 -9
-60 -2 -35 -20 -123 -42 -215 -8 -36 -16 -69 -17 -75 -16 -79 -80 -254 -136
-373 -42 -88 -154 -272 -166 -272 -2 0 -4 64 -3 142 1 188 2 178 -19 178 -30
0 -33 11 -12 40 11 16 20 31 20 33 0 3 18 45 40 92 93 200 164 475 186 720 12
136 7 389 -10 515 -18 130 -31 184 -78 330 -46 142 -131 336 -191 435 -114
188 -215 314 -367 461 -91 87 -237 200 -353 272 -77 49 -260 142 -338 173
-106 41 -277 97 -283 92 -3 -3 -11 -1 -18 5 -7 5 -41 16 -75 23 -76 16 -64 29
15 17 31 -4 68 -10 82 -12z m165 -4251 c11 -1 34 -3 50 -4 23 -1 26 -4 14 -11
-14 -8 -155 -15 -239 -11 l-35 2 38 14 c21 7 41 16 45 20 6 6 32 4 127 -10z"/>
</g>
</svg>
